<?xml version="1.0" encoding="utf-8"?>
<!-- Generator: Adobe Illustrator 16.0.3, SVG Export Plug-In . SVG Version: 6.00 Build 0)  -->
<!DOCTYPE svg PUBLIC "-//W3C//DTD SVG 1.1//EN" "http://www.w3.org/Graphics/SVG/1.1/DTD/svg11.dtd">
<svg version="1.1" id="Layer_1" xmlns="http://www.w3.org/2000/svg" xmlns:xlink="http://www.w3.org/1999/xlink" x="0px" y="0px"
	 width="334.936px" height="138.615px" viewBox="0 0 334.936 138.615" enable-background="new 0 0 334.936 138.615"
	 xml:space="preserve">
<g>
	<path fill="#231F20" d="M0.082,0.019H28.66c2.375,0,4.516,0.384,6.421,1.15c1.905,0.768,3.538,1.819,4.899,3.155
		C41.34,5.66,42.38,7.219,43.098,9c0.717,1.782,1.076,3.663,1.076,5.642c0,3.118-0.656,5.815-1.967,8.091
		c-1.312,2.276-3.452,4.008-6.421,5.196v0.148c1.435,0.397,2.622,1.002,3.563,1.819c0.939,0.816,1.707,1.794,2.301,2.932
		c0.594,1.139,1.027,2.364,1.299,3.674c0.271,1.312,0.457,2.635,0.557,3.971c0.049,0.842,0.099,1.832,0.148,2.969
		c0.049,1.139,0.136,2.29,0.26,3.452c0.123,1.164,0.321,2.29,0.594,3.377c0.271,1.089,0.68,2.004,1.225,2.747H34.079
		c-0.347-0.841-0.606-1.769-0.779-2.784c-0.174-1.014-0.323-2.079-0.445-3.192c-0.124-1.113-0.223-2.251-0.297-3.415
		c-0.074-1.162-0.186-2.264-0.334-3.303c-0.397-2.771-1.238-4.799-2.524-6.087c-1.288-1.286-3.39-1.93-6.31-1.93H11.735v20.71H0.082
		V0.019z M11.735,23.995h12.768c2.623,0,4.614-0.594,5.976-1.782c1.36-1.188,2.042-3.117,2.042-5.79
		c0-2.573-0.681-4.441-2.042-5.604c-1.362-1.162-3.353-1.745-5.976-1.745H11.735V23.995z"/>
	<path fill="#231F20" d="M51.373,33.868c0-3.068,0.47-5.852,1.41-8.351c0.939-2.499,2.276-4.627,4.009-6.384
		c1.731-1.756,3.81-3.118,6.235-4.083c2.424-0.965,5.146-1.447,8.166-1.447c3.018,0,5.753,0.482,8.203,1.447
		c2.449,0.965,4.54,2.327,6.272,4.083c1.732,1.757,3.068,3.885,4.009,6.384c0.939,2.499,1.41,5.283,1.41,8.351
		c0,3.069-0.471,5.84-1.41,8.314c-0.941,2.475-2.277,4.59-4.009,6.347c-1.732,1.757-3.823,3.118-6.272,4.083
		c-2.45,0.965-5.185,1.447-8.203,1.447c-3.019,0-5.741-0.482-8.166-1.447c-2.425-0.965-4.503-2.326-6.235-4.083
		c-1.733-1.756-3.069-3.872-4.009-6.347C51.843,39.708,51.373,36.937,51.373,33.868z M61.914,33.868
		c0,1.535,0.148,3.032,0.445,4.491c0.297,1.46,0.804,2.772,1.522,3.935c0.717,1.163,1.67,2.091,2.858,2.784
		c1.188,0.693,2.672,1.039,4.454,1.039s3.278-0.346,4.491-1.039c1.212-0.693,2.177-1.621,2.895-2.784
		c0.717-1.162,1.225-2.474,1.522-3.935c0.297-1.459,0.445-2.956,0.445-4.491c0-1.533-0.148-3.043-0.445-4.528
		c-0.297-1.485-0.805-2.795-1.522-3.935c-0.718-1.138-1.683-2.065-2.895-2.783c-1.213-0.717-2.709-1.077-4.491-1.077
		s-3.266,0.36-4.454,1.077c-1.188,0.718-2.141,1.646-2.858,2.783c-0.718,1.139-1.225,2.45-1.522,3.935
		C62.062,30.824,61.914,32.334,61.914,33.868z"/>
	<path fill="#231F20" d="M98.211,14.642h9.947v5.196h0.148c1.385-1.979,3.055-3.513,5.011-4.603
		c1.954-1.088,4.194-1.633,6.718-1.633c2.424,0,4.64,0.482,6.644,1.447c2.004,0.965,3.526,2.611,4.565,4.937
		c1.138-1.682,2.684-3.167,4.639-4.454c1.954-1.286,4.268-1.93,6.94-1.93c2.029,0,3.909,0.248,5.642,0.742
		c1.731,0.495,3.216,1.288,4.454,2.375c1.236,1.089,2.202,2.512,2.895,4.268c0.692,1.757,1.039,3.873,1.039,6.347v25.684h-10.541
		V31.27c0-1.286-0.05-2.498-0.148-3.637c-0.1-1.138-0.371-2.127-0.816-2.969c-0.445-0.841-1.102-1.509-1.967-2.004
		c-0.866-0.494-2.041-0.743-3.526-0.743c-1.484,0-2.685,0.286-3.6,0.854c-0.916,0.569-1.633,1.312-2.153,2.227
		c-0.52,0.917-0.866,1.956-1.039,3.118c-0.174,1.164-0.26,2.338-0.26,3.526v21.378h-10.541V31.492c0-1.088-0.026-2.201-0.074-3.34
		c-0.05-1.138-0.26-2.177-0.631-3.118c-0.372-0.939-0.991-1.694-1.856-2.264c-0.866-0.568-2.141-0.854-3.823-0.854
		c-0.545,0-1.213,0.111-2.004,0.334c-0.792,0.223-1.571,0.644-2.338,1.262c-0.768,0.619-1.423,1.51-1.967,2.672
		c-0.545,1.163-0.816,2.685-0.816,4.565v22.269H98.211V14.642z"/>
	<path fill="#231F20" d="M173.851,36.392c0.148,3.366,1.014,5.827,2.598,7.386c1.583,1.559,3.86,2.338,6.829,2.338
		c2.127,0,3.958-0.531,5.493-1.596c1.533-1.063,2.474-2.189,2.82-3.377h9.279c-1.484,4.554-3.761,7.844-6.829,9.873
		c-3.069,2.029-6.78,3.043-11.134,3.043c-3.019,0-5.741-0.495-8.166-1.484c-2.425-0.989-4.479-2.375-6.161-4.157
		c-1.683-1.782-2.982-3.909-3.897-6.384c-0.916-2.474-1.373-5.196-1.373-8.166c0-2.87,0.47-5.542,1.41-8.017
		c0.939-2.474,2.276-4.614,4.008-6.421c1.732-1.806,3.797-3.229,6.198-4.269c2.4-1.039,5.06-1.559,7.98-1.559
		c3.266,0,6.111,0.631,8.536,1.893c2.424,1.262,4.417,2.958,5.976,5.085c1.559,2.128,2.684,4.554,3.377,7.274
		c0.692,2.722,0.939,5.567,0.742,8.537H173.851z M190.998,29.711c-0.495-2.672-1.373-4.701-2.635-6.087
		c-1.262-1.385-3.18-2.079-5.752-2.079c-1.683,0-3.081,0.286-4.194,0.854c-1.113,0.569-2.004,1.274-2.672,2.115
		c-0.668,0.842-1.139,1.733-1.411,2.672c-0.272,0.94-0.434,1.782-0.482,2.524H190.998z"/>
	<path fill="#231F20" d="M207.773,14.642h10.021v7.126h0.148c0.494-1.188,1.162-2.288,2.004-3.303
		c0.842-1.014,1.807-1.88,2.896-2.598c1.088-0.717,2.264-1.274,3.525-1.67c1.262-0.396,2.535-0.594,3.822-0.594
		c0.791,0,1.559,0.124,2.301,0.371v9.798c-0.494-0.099-1.088-0.186-1.781-0.26s-1.361-0.111-2.004-0.111
		c-1.93,0-3.563,0.322-4.898,0.965c-1.336,0.644-2.412,1.522-3.229,2.635c-0.818,1.113-1.4,2.425-1.746,3.934
		c-0.346,1.51-0.52,3.106-0.52,4.788v17.295h-10.54V14.642z"/>
	<path fill="#231F20" d="M247.485,8.704h-10.539V0.019h10.539V8.704z M236.946,14.642h10.539v38.377h-10.539V14.642z"/>
	<path fill="#231F20" d="M256.765,0.019h10.541v28.43l13.287-13.807h12.471l-14.475,14.104l16.107,24.273h-12.768l-10.541-17.147
		l-4.082,3.934v13.213h-10.541V0.019z"/>
	<path fill="#231F20" d="M307.091,36.392c0.148,3.366,1.014,5.827,2.598,7.386c1.584,1.559,3.861,2.338,6.83,2.338
		c2.127,0,3.959-0.531,5.492-1.596c1.533-1.063,2.475-2.189,2.822-3.377h9.277c-1.484,4.554-3.762,7.844-6.828,9.873
		c-3.07,2.029-6.781,3.043-11.135,3.043c-3.02,0-5.742-0.495-8.166-1.484s-4.479-2.375-6.16-4.157
		c-1.684-1.782-2.982-3.909-3.896-6.384c-0.918-2.474-1.375-5.196-1.375-8.166c0-2.87,0.471-5.542,1.412-8.017
		c0.939-2.474,2.275-4.614,4.008-6.421c1.73-1.806,3.797-3.229,6.197-4.269c2.4-1.039,5.061-1.559,7.98-1.559
		c3.266,0,6.111,0.631,8.537,1.893c2.424,1.262,4.416,2.958,5.975,5.085c1.559,2.128,2.684,4.554,3.377,7.274
		c0.693,2.722,0.939,5.567,0.742,8.537H307.091z M324.239,29.711c-0.496-2.672-1.375-4.701-2.637-6.087
		c-1.262-1.385-3.18-2.079-5.752-2.079c-1.684,0-3.08,0.286-4.193,0.854c-1.115,0.569-2.006,1.274-2.674,2.115
		c-0.668,0.842-1.139,1.733-1.41,2.672c-0.271,0.94-0.434,1.782-0.482,2.524H324.239z"/>
</g>
<g>
	<path fill="#231F20" d="M0.171,63.154h3.474L19.031,99.66h0.11l15.22-36.506h3.474v39.195h-2.426V66.118h-0.11l-15,36.231h-2.427
		L2.708,66.118h-0.11v36.231H0.171V63.154z"/>
	<path fill="#231F20" d="M65.297,97.086c0,0.401,0.009,0.804,0.028,1.205c0.018,0.401,0.083,0.767,0.193,1.095
		c0.11,0.33,0.294,0.595,0.551,0.795c0.257,0.201,0.625,0.302,1.103,0.302c0.367,0,0.882-0.055,1.544-0.165v1.812
		c-0.294,0.074-0.579,0.129-0.854,0.165c-0.276,0.037-0.561,0.055-0.855,0.055c-0.846,0-1.517-0.109-2.013-0.329
		s-0.874-0.513-1.13-0.879c-0.258-0.365-0.433-0.796-0.524-1.29c-0.092-0.494-0.138-1.033-0.138-1.619V96.75h-0.11
		c-0.331,0.843-0.809,1.639-1.434,2.389c-0.625,0.75-1.388,1.418-2.289,2.003c-0.901,0.586-1.921,1.043-3.061,1.373
		c-1.14,0.329-2.39,0.494-3.75,0.494c-1.323,0-2.564-0.138-3.722-0.412s-2.169-0.723-3.033-1.345s-1.535-1.437-2.013-2.443
		c-0.478-1.006-0.717-2.259-0.717-3.76c0-1.647,0.321-2.992,0.965-4.035c0.643-1.043,1.47-1.866,2.482-2.471
		c1.011-0.604,2.131-1.033,3.364-1.29c1.231-0.255,2.435-0.438,3.612-0.549c2.353-0.146,4.182-0.319,5.487-0.521
		c1.304-0.2,2.27-0.512,2.895-0.933c0.625-0.421,1.011-0.97,1.158-1.647c0.146-0.677,0.22-1.601,0.22-2.771
		c0-0.33-0.11-0.797-0.331-1.4s-0.616-1.216-1.186-1.839c-0.571-0.622-1.37-1.161-2.399-1.619c-1.03-0.457-2.353-0.687-3.971-0.687
		c-2.537,0-4.586,0.641-6.148,1.921c-1.563,1.282-2.418,3.148-2.564,5.6h-2.096c0.146-3.11,1.149-5.443,3.005-6.999
		c1.856-1.555,4.458-2.333,7.803-2.333c1.25,0,2.463,0.109,3.64,0.328c1.176,0.22,2.233,0.604,3.171,1.151s1.69,1.297,2.261,2.246
		c0.569,0.95,0.854,2.155,0.854,3.615V97.086z M63.202,86.32c-0.405,0.476-0.974,0.833-1.709,1.07
		c-0.736,0.238-1.571,0.412-2.509,0.521s-1.921,0.201-2.95,0.274c-1.03,0.074-2.06,0.184-3.088,0.329
		c-2.5,0.294-4.421,0.925-5.763,1.895c-1.342,0.97-2.013,2.517-2.013,4.639c0,1.721,0.615,3.175,1.847,4.364
		c1.231,1.189,3.097,1.784,5.597,1.784c2.39,0,4.283-0.431,5.68-1.29c1.396-0.86,2.462-1.848,3.198-2.965
		c0.735-1.116,1.204-2.195,1.406-3.239c0.202-1.043,0.303-1.747,0.303-2.113V86.32z"/>
	<path fill="#231F20" d="M74.065,80.391h0.166c0.257-0.914,0.735-1.774,1.434-2.58c0.698-0.805,1.525-1.5,2.482-2.086
		c0.956-0.585,2.031-1.034,3.226-1.345c1.194-0.311,2.435-0.448,3.722-0.412v2.086c-1.103-0.146-2.363-0.036-3.777,0.329
		c-1.416,0.366-2.767,1.172-4.053,2.416c-0.516,0.549-0.965,1.079-1.351,1.592c-0.386,0.513-0.708,1.08-0.965,1.701
		c-0.257,0.623-0.46,1.318-0.606,2.087c-0.147,0.768-0.24,1.684-0.276,2.744v15.426H71.97V74.133h2.095V80.391z"/>
	<path fill="#231F20" d="M87.411,63.154h2.096V89.12l17.481-14.986h3.033L97.613,84.672l13.29,17.677h-2.868L95.958,86.265
		L89.506,91.7v10.649h-2.096V63.154z"/>
	<path fill="#231F20" d="M113.329,68.808v-5.654h2.096v5.654H113.329z M113.329,102.349V74.133h2.096v28.216H113.329z"/>
	<path fill="#231F20" d="M123.09,92.962c0.073,1.317,0.367,2.479,0.882,3.485c0.515,1.007,1.186,1.866,2.013,2.58
		s1.792,1.254,2.895,1.619c1.103,0.366,2.297,0.55,3.584,0.55c0.918,0,1.902-0.083,2.95-0.247c1.048-0.165,2.021-0.467,2.923-0.906
		c0.9-0.439,1.645-1.052,2.233-1.839c0.587-0.787,0.882-1.784,0.882-2.992c0-1.207-0.276-2.177-0.827-2.909
		c-0.552-0.731-1.288-1.317-2.206-1.757c-0.919-0.438-1.958-0.786-3.116-1.043c-1.158-0.256-2.344-0.512-3.557-0.769
		c-1.213-0.256-2.408-0.549-3.584-0.878c-1.177-0.329-2.225-0.777-3.144-1.345c-0.919-0.567-1.654-1.318-2.206-2.251
		c-0.552-0.934-0.827-2.113-0.827-3.541c0-1.391,0.312-2.553,0.938-3.485c0.625-0.934,1.424-1.675,2.398-2.224
		c0.974-0.549,2.068-0.941,3.281-1.181c1.213-0.237,2.427-0.356,3.64-0.356c1.507,0,2.895,0.165,4.164,0.494s2.371,0.86,3.309,1.592
		c0.938,0.732,1.673,1.666,2.206,2.8c0.532,1.135,0.799,2.507,0.799,4.117h-2.095c0-1.28-0.221-2.379-0.662-3.294
		c-0.441-0.914-1.03-1.655-1.765-2.223c-0.736-0.567-1.619-0.988-2.647-1.263c-1.029-0.274-2.132-0.412-3.309-0.412
		c-0.957,0-1.921,0.092-2.895,0.274c-0.975,0.184-1.848,0.494-2.62,0.934c-0.772,0.438-1.406,1.007-1.902,1.701
		c-0.496,0.696-0.745,1.537-0.745,2.525c0,1.135,0.276,2.05,0.827,2.745c0.552,0.695,1.277,1.254,2.178,1.674
		c0.901,0.421,1.911,0.76,3.033,1.016c1.121,0.257,2.251,0.513,3.392,0.769c1.396,0.257,2.71,0.559,3.943,0.906
		c1.231,0.348,2.297,0.823,3.198,1.427c0.9,0.604,1.608,1.382,2.123,2.333c0.515,0.952,0.772,2.16,0.772,3.623
		c0,1.537-0.35,2.8-1.048,3.788c-0.699,0.988-1.581,1.784-2.647,2.388c-1.067,0.604-2.252,1.024-3.557,1.263
		c-1.305,0.237-2.583,0.357-3.833,0.357c-1.618,0-3.116-0.212-4.495-0.632c-1.378-0.42-2.583-1.061-3.612-1.921
		c-1.03-0.859-1.839-1.912-2.426-3.157c-0.589-1.243-0.901-2.689-0.938-4.336H123.09z"/>
	<path fill="#231F20" d="M149.449,88.515c-0.037,1.647,0.156,3.239,0.579,4.776c0.422,1.537,1.076,2.892,1.958,4.063
		s1.976,2.104,3.281,2.799c1.304,0.696,2.84,1.044,4.604,1.044c2.683,0,4.917-0.741,6.7-2.224c1.783-1.482,2.931-3.541,3.447-6.176
		h2.095c-0.551,3.33-1.884,5.865-3.998,7.603c-2.114,1.739-4.862,2.608-8.244,2.608c-2.06,0-3.879-0.376-5.459-1.126
		c-1.581-0.749-2.895-1.774-3.943-3.074c-1.048-1.299-1.839-2.817-2.371-4.556c-0.534-1.738-0.782-3.577-0.745-5.518
		c-0.037-1.939,0.193-3.823,0.689-5.654c0.496-1.829,1.268-3.458,2.316-4.886c1.048-1.427,2.362-2.57,3.943-3.431
		c1.581-0.859,3.437-1.29,5.57-1.29c2.206,0,4.117,0.403,5.735,1.208c1.617,0.805,2.94,1.894,3.97,3.266
		c1.029,1.373,1.773,2.975,2.233,4.804c0.459,1.83,0.634,3.752,0.524,5.764H149.449z M170.238,86.704
		c-0.037-1.463-0.294-2.891-0.772-4.281c-0.478-1.391-1.158-2.607-2.041-3.65c-0.882-1.044-1.958-1.885-3.226-2.525
		c-1.269-0.64-2.712-0.961-4.329-0.961c-1.581,0-2.987,0.329-4.219,0.988c-1.232,0.658-2.289,1.528-3.171,2.607
		c-0.882,1.08-1.581,2.306-2.095,3.678c-0.516,1.373-0.828,2.755-0.938,4.145H170.238z"/>
	<path fill="#231F20" d="M178.234,92.962c0.073,1.317,0.367,2.479,0.882,3.485c0.515,1.007,1.186,1.866,2.013,2.58
		s1.792,1.254,2.895,1.619c1.103,0.366,2.297,0.55,3.584,0.55c0.918,0,1.902-0.083,2.95-0.247c1.048-0.165,2.021-0.467,2.923-0.906
		c0.9-0.439,1.645-1.052,2.233-1.839c0.587-0.787,0.882-1.784,0.882-2.992c0-1.207-0.276-2.177-0.827-2.909
		c-0.552-0.731-1.288-1.317-2.206-1.757c-0.919-0.438-1.958-0.786-3.116-1.043c-1.158-0.256-2.344-0.512-3.557-0.769
		c-1.213-0.256-2.408-0.549-3.584-0.878c-1.177-0.329-2.225-0.777-3.144-1.345c-0.919-0.567-1.654-1.318-2.206-2.251
		c-0.552-0.934-0.827-2.113-0.827-3.541c0-1.391,0.312-2.553,0.938-3.485c0.625-0.934,1.424-1.675,2.398-2.224
		c0.974-0.549,2.068-0.941,3.281-1.181c1.213-0.237,2.427-0.356,3.64-0.356c1.507,0,2.895,0.165,4.164,0.494s2.371,0.86,3.309,1.592
		c0.938,0.732,1.673,1.666,2.206,2.8c0.532,1.135,0.799,2.507,0.799,4.117h-2.095c0-1.28-0.221-2.379-0.662-3.294
		c-0.441-0.914-1.03-1.655-1.765-2.223c-0.736-0.567-1.619-0.988-2.647-1.263c-1.029-0.274-2.132-0.412-3.309-0.412
		c-0.957,0-1.921,0.092-2.895,0.274c-0.975,0.184-1.848,0.494-2.62,0.934c-0.772,0.438-1.406,1.007-1.902,1.701
		c-0.496,0.696-0.745,1.537-0.745,2.525c0,1.135,0.276,2.05,0.827,2.745c0.552,0.695,1.277,1.254,2.178,1.674
		c0.901,0.421,1.911,0.76,3.033,1.016c1.121,0.257,2.251,0.513,3.392,0.769c1.396,0.257,2.71,0.559,3.943,0.906
		c1.231,0.348,2.297,0.823,3.198,1.427c0.9,0.604,1.608,1.382,2.123,2.333c0.515,0.952,0.772,2.16,0.772,3.623
		c0,1.537-0.35,2.8-1.048,3.788c-0.699,0.988-1.581,1.784-2.647,2.388c-1.067,0.604-2.252,1.024-3.557,1.263
		c-1.305,0.237-2.583,0.357-3.833,0.357c-1.618,0-3.116-0.212-4.495-0.632c-1.378-0.42-2.583-1.061-3.612-1.921
		c-1.03-0.859-1.839-1.912-2.426-3.157c-0.589-1.243-0.901-2.689-0.938-4.336H178.234z"/>
	<path fill="#231F20" d="M204.594,88.515c-0.037,1.647,0.156,3.239,0.579,4.776c0.422,1.537,1.076,2.892,1.958,4.063
		s1.976,2.104,3.281,2.799c1.304,0.696,2.839,1.044,4.605,1.044c2.684,0,4.916-0.741,6.699-2.224s2.932-3.541,3.447-6.176h2.096
		c-0.553,3.33-1.885,5.865-3.998,7.603c-2.115,1.739-4.863,2.608-8.244,2.608c-2.061,0-3.88-0.376-5.46-1.126
		c-1.581-0.749-2.895-1.774-3.943-3.074c-1.048-1.299-1.839-2.817-2.371-4.556c-0.534-1.738-0.782-3.577-0.745-5.518
		c-0.037-1.939,0.193-3.823,0.689-5.654c0.496-1.829,1.268-3.458,2.316-4.886c1.048-1.427,2.362-2.57,3.943-3.431
		c1.581-0.859,3.438-1.29,5.57-1.29c2.205,0,4.117,0.403,5.734,1.208s2.941,1.894,3.971,3.266c1.029,1.373,1.773,2.975,2.234,4.804
		c0.459,1.83,0.633,3.752,0.523,5.764H204.594z M225.384,86.704c-0.037-1.463-0.295-2.891-0.771-4.281
		c-0.479-1.391-1.158-2.607-2.041-3.65c-0.883-1.044-1.957-1.885-3.227-2.525c-1.268-0.64-2.711-0.961-4.328-0.961
		c-1.582,0-2.988,0.329-4.219,0.988c-1.232,0.658-2.289,1.528-3.171,2.607c-0.882,1.08-1.581,2.306-2.095,3.678
		c-0.516,1.373-0.828,2.755-0.938,4.145H225.384z"/>
	<path fill="#231F20" d="M234.482,80.391h0.166c0.256-0.914,0.734-1.774,1.434-2.58c0.697-0.805,1.524-1.5,2.481-2.086
		c0.955-0.585,2.03-1.034,3.226-1.345c1.194-0.311,2.436-0.448,3.723-0.412v2.086c-1.103-0.146-2.362-0.036-3.777,0.329
		c-1.416,0.366-2.767,1.172-4.054,2.416c-0.515,0.549-0.965,1.079-1.351,1.592s-0.708,1.08-0.965,1.701
		c-0.258,0.623-0.461,1.318-0.607,2.087c-0.146,0.768-0.239,1.684-0.275,2.744v15.426h-2.096V74.133h2.096V80.391z"/>
	<path fill="#231F20" d="M259.518,102.349h-2.592l-11.415-28.216h2.427l10.257,25.801h0.11l9.596-25.801h2.315L259.518,102.349z"/>
	<path fill="#231F20" d="M273.688,68.808v-5.654h2.096v5.654H273.688z M273.688,102.349V74.133h2.096v28.216H273.688z"/>
	<path fill="#231F20" d="M303.799,82.861c-0.11-1.243-0.433-2.341-0.965-3.293c-0.534-0.951-1.223-1.738-2.068-2.361
		c-0.846-0.621-1.829-1.098-2.95-1.427c-1.122-0.329-2.325-0.494-3.612-0.494c-1.765,0-3.327,0.356-4.688,1.07
		s-2.5,1.666-3.419,2.854c-0.919,1.189-1.618,2.544-2.096,4.063c-0.478,1.52-0.717,3.084-0.717,4.693
		c0,1.903,0.221,3.66,0.662,5.271s1.121,3.011,2.04,4.199c0.919,1.189,2.059,2.113,3.419,2.772c1.36,0.658,2.959,0.988,4.798,0.988
		c1.323,0,2.546-0.22,3.667-0.659s2.114-1.043,2.979-1.812c0.863-0.769,1.571-1.692,2.123-2.772
		c0.551-1.079,0.918-2.259,1.103-3.541h2.096c-0.221,1.685-0.689,3.185-1.406,4.502s-1.6,2.425-2.646,3.321
		c-1.048,0.897-2.243,1.583-3.585,2.059c-1.343,0.475-2.785,0.714-4.329,0.714c-2.316,0-4.293-0.412-5.928-1.235
		c-1.637-0.823-2.979-1.93-4.025-3.321c-1.048-1.391-1.82-2.992-2.316-4.804s-0.745-3.705-0.745-5.682
		c0-1.976,0.285-3.843,0.855-5.6c0.569-1.756,1.406-3.293,2.509-4.61c1.103-1.318,2.463-2.361,4.081-3.13
		c1.617-0.769,3.474-1.152,5.569-1.152c1.544,0,2.986,0.192,4.329,0.576c1.342,0.385,2.537,0.961,3.585,1.729
		c1.047,0.769,1.902,1.738,2.563,2.909c0.662,1.172,1.066,2.563,1.214,4.172H303.799z"/>
	<path fill="#231F20" d="M311.905,88.515c-0.037,1.647,0.156,3.239,0.579,4.776s1.075,2.892,1.958,4.063
		c0.882,1.171,1.976,2.104,3.281,2.799c1.305,0.696,2.84,1.044,4.604,1.044c2.684,0,4.917-0.741,6.7-2.224s2.932-3.541,3.446-6.176
		h2.096c-0.552,3.33-1.885,5.865-3.998,7.603c-2.114,1.739-4.862,2.608-8.244,2.608c-2.06,0-3.879-0.376-5.459-1.126
		c-1.582-0.749-2.896-1.774-3.943-3.074c-1.048-1.299-1.839-2.817-2.371-4.556c-0.533-1.738-0.781-3.577-0.745-5.518
		c-0.036-1.939,0.193-3.823,0.689-5.654c0.497-1.829,1.269-3.458,2.316-4.886c1.048-1.427,2.362-2.57,3.943-3.431
		c1.58-0.859,3.437-1.29,5.569-1.29c2.206,0,4.117,0.403,5.735,1.208c1.617,0.805,2.94,1.894,3.971,3.266
		c1.028,1.373,1.772,2.975,2.233,4.804c0.459,1.83,0.634,3.752,0.523,5.764H311.905z M332.695,86.704
		c-0.037-1.463-0.295-2.891-0.771-4.281c-0.479-1.391-1.158-2.607-2.041-3.65c-0.882-1.044-1.957-1.885-3.226-2.525
		c-1.269-0.64-2.712-0.961-4.329-0.961c-1.581,0-2.987,0.329-4.219,0.988c-1.232,0.658-2.288,1.528-3.171,2.607
		c-0.882,1.08-1.581,2.306-2.096,3.678c-0.515,1.373-0.827,2.755-0.938,4.145H332.695z"/>
</g>
<g>
	<path fill="#231F20" d="M54.025,111.32c0,14.799-11.995,26.794-26.794,26.794S0.438,126.119,0.438,111.32"/>
	<path fill="#231F20" d="M27.231,138.614c-15.05,0-27.294-12.244-27.294-27.294h1c0,14.498,11.795,26.294,26.294,26.294
		s26.294-11.796,26.294-26.294h1C54.525,126.37,42.281,138.614,27.231,138.614z"/>
</g>
<g>
	<path fill="#231F20" d="M107.613,111.32c0,14.799-11.995,26.794-26.794,26.794s-26.794-11.995-26.794-26.794"/>
	<path fill="#231F20" d="M80.819,138.614c-15.05,0-27.294-12.244-27.294-27.294h1c0,14.498,11.795,26.294,26.294,26.294
		s26.294-11.796,26.294-26.294h1C108.113,126.37,95.869,138.614,80.819,138.614z"/>
</g>
<g>
	<path fill="#231F20" d="M161.202,111.32c0,14.799-11.995,26.794-26.794,26.794s-26.794-11.995-26.794-26.794"/>
	<path fill="#231F20" d="M134.408,138.614c-15.05,0-27.294-12.244-27.294-27.294h1c0,14.498,11.795,26.294,26.294,26.294
		c14.499,0,26.294-11.796,26.294-26.294h1C161.702,126.37,149.458,138.614,134.408,138.614z"/>
</g>
<g>
	<path fill="#231F20" d="M214.789,111.32c0,14.799-11.995,26.794-26.793,26.794s-26.794-11.995-26.794-26.794"/>
	<path fill="#231F20" d="M187.996,138.614c-15.05,0-27.294-12.244-27.294-27.294h1c0,14.498,11.795,26.294,26.294,26.294
		c14.498,0,26.293-11.796,26.293-26.294h1C215.289,126.37,203.045,138.614,187.996,138.614z"/>
</g>
<g>
	<rect y="110.82" fill="#231F20" width="334.936" height="1"/>
</g>
</svg>
